<svg width="94" height="94" viewBox="0 0 94 94" fill="none" xmlns="http://www.w3.org/2000/svg">
<path d="M0 0H5.875V94H0V0ZM5.875 88.125H94V94H5.875V88.125Z" fill="#FF9C66"/>
<path fill-rule="evenodd" clip-rule="evenodd" d="M84.5412 53.1159L58.9908 21.1794L41.1249 39.0452L19.7047 17.625L15.5452 21.7786L41.1249 47.3584L58.509 29.9743L79.9528 56.7877L84.5412 53.1159Z" fill="#FF9C66"/>
<path fill-rule="evenodd" clip-rule="evenodd" d="M58.75 57.8923C58.75 58.6713 59.0595 59.4185 59.6104 59.9694C60.1613 60.5203 60.9084 60.8298 61.6875 60.8298H85.1875C85.9666 60.8298 86.7137 60.5203 87.2646 59.9694C87.8155 59.4185 88.125 58.6713 88.125 57.8923V34.3923C88.125 33.6132 87.8155 32.866 87.2646 32.3151C86.7137 31.7643 85.9666 31.4548 85.1875 31.4548C84.4084 31.4548 83.6613 31.7643 83.1104 32.3151C82.5595 32.866 82.25 33.6132 82.25 34.3923V54.9548H61.6875C60.9084 54.9548 60.1613 55.2643 59.6104 55.8151C59.0595 56.366 58.75 57.1132 58.75 57.8923Z" fill="#FF9C66"/>
</svg>
