<svg width="219" height="219" viewBox="0 0 219 219" fill="none" xmlns="http://www.w3.org/2000/svg">
<path d="M145.857 97.3096V66.5127L129.604 82.7666V97.3096C129.582 108.153 120.621 117.007 109.5 116.985C105.415 117.007 101.63 115.83 98.3789 113.777L86.8301 125.54C93.0536 130.331 100.924 133.239 109.5 133.239C129.561 133.239 145.857 117.178 145.857 97.3096Z" fill="white"/>
<path d="M178.151 95.3847H165.319C164.378 95.3847 163.608 96.1546 163.608 97.0956C163.608 127.101 139.292 151.418 109.286 151.418C95.8125 151.418 83.4724 146.499 73.9981 138.372L62.4492 149.921C72.9074 159.16 86.1457 165.383 100.731 167.244V189.059H69.7207C66.748 189.059 64.3954 192.117 64.3741 195.902V203.602C64.3954 204.543 64.9943 205.312 65.6573 205.312H152.915C153.599 205.312 154.198 204.543 154.198 203.602V195.902C154.198 192.117 151.846 189.059 148.852 189.059H116.985V167.244C152.338 163.416 179.862 133.474 179.862 97.0956C179.862 96.1546 179.092 95.3847 178.151 95.3847ZM180.953 14.6071L171.65 5.64604C170.987 5.00444 169.918 5.00444 169.255 5.66743L141.666 33.2563C135.656 21.6433 123.401 13.6874 109.286 13.6874C89.204 13.6874 72.9287 29.7916 72.9287 49.6171V97.5234C72.9287 98.9563 73.0143 100.368 73.1854 101.758L58.6424 116.301C56.3968 110.334 55.1564 103.854 55.1778 97.0956C55.135 96.1546 54.3651 95.3847 53.4668 95.3847H40.6348C39.6938 95.3847 38.9239 96.1546 38.9239 97.0956C38.9239 108.431 41.5972 119.124 46.3237 128.62L17.0239 157.919C16.3609 158.582 16.3609 159.673 17.0239 160.336L26.156 169.468C26.819 170.131 27.9097 170.131 28.5727 169.468L180.974 17.0665L180.996 17.0452C181.659 16.3608 181.637 15.2701 180.953 14.6071ZM89.1826 85.7607V49.6171C89.1826 38.7955 98.1437 29.9414 109.286 29.9414C119.124 29.9414 127.272 36.8493 129.026 45.9172L89.1826 85.7607Z" fill="white"/>
</svg>
