<svg width="124" height="124" viewBox="0 0 124 124" fill="none" xmlns="http://www.w3.org/2000/svg">
<path d="M62.0001 112.082C67.707 112.082 72.3334 107.456 72.3334 101.749C72.3334 96.042 67.707 91.4156 62.0001 91.4156C56.2931 91.4156 51.6667 96.042 51.6667 101.749C51.6667 107.456 56.2931 112.082 62.0001 112.082Z" fill="#FF9C66"/>
<path d="M112.84 32.3089C97.5723 22.7541 79.9247 17.6872 61.9137 17.6872C43.9028 17.6872 26.2552 22.7541 10.9876 32.3089C10.3947 32.671 9.88037 33.1483 9.47494 33.7125C9.06952 34.2767 8.78124 34.9164 8.62713 35.5939C8.47302 36.2713 8.4562 36.9728 8.57765 37.6568C8.69911 38.3409 8.95639 38.9937 9.3343 39.5767L9.71319 40.1622C10.4396 41.2588 11.5594 42.0346 12.8414 42.3295C14.1233 42.6243 15.4695 42.4157 16.6021 41.7467C30.1507 33.234 45.8267 28.7181 61.8276 28.7181C77.8286 28.7181 93.5046 33.234 107.053 41.7467C108.186 42.4157 109.532 42.6243 110.814 42.3295C112.096 42.0346 113.216 41.2588 113.942 40.1622L114.321 39.5767C114.707 39.0041 114.975 38.3604 115.109 37.6832C115.243 37.006 115.241 36.3089 115.104 35.6324C114.966 34.9559 114.695 34.3136 114.306 33.743C113.917 33.1724 113.419 32.6849 112.84 32.3089V32.3089Z" fill="#FF9C66"/>
<path d="M99.2691 53.1822C88.0458 46.2235 75.1024 42.5365 61.8969 42.5365C48.6913 42.5365 35.748 46.2235 24.5246 53.1822C23.9421 53.5499 23.4384 54.0297 23.0427 54.5937C22.6471 55.1577 22.3675 55.7947 22.2201 56.4676C22.0727 57.1406 22.0604 57.8361 22.184 58.5138C22.3077 59.1916 22.5647 59.838 22.9402 60.4156L23.3191 61.0011C24.0456 62.0977 25.1653 62.8735 26.4473 63.1684C27.7292 63.4632 29.0754 63.2546 30.208 62.5856C39.701 56.6899 50.6532 53.5657 61.828 53.5657C73.0028 53.5657 83.955 56.6899 93.448 62.5856C94.5805 63.2546 95.9267 63.4632 97.2087 63.1684C98.4906 62.8735 99.6104 62.0977 100.337 61.0011L100.716 60.4156C101.098 59.8463 101.363 59.2071 101.497 58.5348C101.631 57.8625 101.631 57.1703 101.497 56.4981C101.362 55.8258 101.096 55.1868 100.714 54.6178C100.332 54.0487 99.8406 53.5609 99.2691 53.1822V53.1822Z" fill="#FF9C66"/>
<path d="M85.698 74.0211C78.5109 69.6998 70.283 67.4167 61.8969 67.4167C53.5107 67.4167 45.2828 69.6998 38.0957 74.0211C37.5143 74.3855 37.0113 74.8622 36.6161 75.4231C36.2209 75.9841 35.9414 76.6181 35.7939 77.2883C35.6464 77.9584 35.6338 78.6513 35.757 79.3263C35.8802 80.0014 36.1366 80.6451 36.5113 81.22L36.8557 81.7711C37.6137 82.8913 38.7757 83.6748 40.0984 83.9573C41.4211 84.2398 42.8018 83.9995 43.9513 83.2867C49.3899 80.0851 55.5859 78.3968 61.8969 78.3968C68.2078 78.3968 74.4038 80.0851 79.8424 83.2867C80.996 83.9962 82.3796 84.2311 83.7027 83.942C85.0257 83.653 86.1854 82.8626 86.938 81.7367L87.2824 81.1855C87.6563 80.6134 87.9121 79.9723 88.0348 79.2999C88.1576 78.6275 88.1448 77.9374 87.9972 77.27C87.8496 76.6027 87.5702 75.9715 87.1753 75.4136C86.7805 74.8557 86.2782 74.3823 85.698 74.0211V74.0211Z" fill="#FF9C66"/>
</svg>
