<svg width="126" height="126" viewBox="0 0 126 126" fill="none" xmlns="http://www.w3.org/2000/svg">
<path d="M82.5825 15.75H43.4175L15.75 43.4175V82.5825L43.4175 110.25H82.5825L110.25 82.5825V43.4175L82.5825 15.75ZM99.75 78.225L78.225 99.75H47.775L26.25 78.225V47.775L47.775 26.25H78.225L99.75 47.775V78.225V78.225Z" fill="#FF9C66"/>
<path d="M63 89.25C65.8995 89.25 68.25 86.8995 68.25 84C68.25 81.1005 65.8995 78.75 63 78.75C60.1005 78.75 57.75 81.1005 57.75 84C57.75 86.8995 60.1005 89.25 63 89.25Z" fill="#FF9C66"/>
<path d="M57.75 36.75H68.25V73.5H57.75V36.75Z" fill="#FF9C66"/>
</svg>
